<?xml version="1.0" encoding="UTF-8"?>
<svg xmlns="http://www.w3.org/2000/svg" xmlns:xlink="http://www.w3.org/1999/xlink" width="65pt" height="65pt" viewBox="0 0 65 65" version="1.1">
<g id="surface1">
<path style=" stroke:none;fill-rule:nonzero;fill:rgb(21.176471%,82.352941%,56.078431%);fill-opacity:1;" d="M 2.035156 60.875 L 5.445312 46.457031 C 6.730469 41.023438 11.582031 37.1875 17.167969 37.1875 L 47.8125 37.1875 C 53.390625 37.1875 58.238281 41.015625 59.53125 46.441406 L 62.964844 60.875 Z M 2.035156 60.875 "/>
<path style=" stroke:none;fill-rule:nonzero;fill:rgb(99.607843%,85.490196%,60.784314%);fill-opacity:1;" d="M 37.566406 30.410156 L 37.566406 37.1875 C 34.757812 39.992188 30.207031 39.992188 27.402344 37.1875 L 27.402344 30.410156 Z M 37.566406 30.410156 "/>
<path style=" stroke:none;fill-rule:nonzero;fill:rgb(100%,77.647059%,42.352941%);fill-opacity:1;" d="M 37.847656 10.367188 C 35.046875 13.171875 31.246094 14.742188 27.285156 14.742188 L 21.757812 14.742188 L 21.757812 12.011719 C 21.757812 6.085938 26.558594 1.28125 32.484375 1.28125 C 38.410156 1.28125 43.210938 6.085938 43.210938 12.011719 L 43.210938 14.742188 L 38.609375 14.742188 C 37.308594 14.742188 36.058594 14.226562 35.140625 13.304688 "/>
<path style=" stroke:none;fill-rule:nonzero;fill:rgb(99.607843%,85.490196%,60.784314%);fill-opacity:1;" d="M 21.753906 14.742188 L 21.753906 20.5 C 21.753906 26.425781 26.558594 31.230469 32.484375 31.230469 C 38.410156 31.230469 43.210938 26.425781 43.210938 20.5 L 43.210938 14.742188 L 40.3125 14.742188 C 38.371094 14.742188 36.527344 13.902344 35.253906 12.441406 C 33.25 13.9375 30.816406 14.742188 28.3125 14.742188 Z M 21.753906 14.742188 "/>
<path style=" stroke:none;fill-rule:nonzero;fill:rgb(99.607843%,85.490196%,60.784314%);fill-opacity:1;" d="M 45.25 21.519531 L 43.210938 21.519531 L 43.210938 14.742188 L 45.25 14.742188 C 46.929688 14.742188 48.292969 16.109375 48.292969 17.789062 L 48.292969 18.472656 C 48.292969 20.15625 46.929688 21.519531 45.25 21.519531 Z M 45.25 21.519531 "/>
<path style=" stroke:none;fill-rule:nonzero;fill:rgb(99.607843%,85.490196%,60.784314%);fill-opacity:1;" d="M 19.71875 21.519531 L 21.753906 21.519531 L 21.753906 14.742188 L 19.71875 14.742188 C 18.039062 14.742188 16.675781 16.109375 16.675781 17.789062 L 16.675781 18.472656 C 16.675781 20.15625 18.039062 21.519531 19.71875 21.519531 Z M 19.71875 21.519531 "/>
<path style=" stroke:none;fill-rule:nonzero;fill:rgb(53.72549%,53.72549%,59.607843%);fill-opacity:1;" d="M 52.007812 63.71875 C 52.007812 52.945312 43.273438 44.210938 32.5 44.210938 C 21.726562 44.210938 12.992188 52.945312 12.992188 63.71875 "/>
<path style=" stroke:none;fill-rule:nonzero;fill:rgb(99.607843%,85.490196%,60.784314%);fill-opacity:1;" d="M 53.667969 63.71875 L 48.738281 55.386719 L 47.242188 56.351562 C 46.3125 56.949219 45.082031 56.765625 44.367188 55.921875 L 41.644531 52.714844 C 41.039062 52.003906 40.949219 50.984375 41.421875 50.175781 L 43.339844 46.898438 L 48.988281 46.898438 L 63.300781 61.210938 C 64.226562 62.136719 63.570312 63.71875 62.261719 63.71875 Z M 53.667969 63.71875 "/>
<path style=" stroke:none;fill-rule:nonzero;fill:rgb(21.176471%,82.352941%,56.078431%);fill-opacity:1;" d="M 50.25 57.941406 L 53.667969 63.71875 L 62.261719 63.71875 C 63.570312 63.71875 64.226562 62.136719 63.300781 61.210938 L 55.140625 53.050781 Z M 50.25 57.941406 "/>
<path style=" stroke:none;fill-rule:nonzero;fill:rgb(99.607843%,85.490196%,60.784314%);fill-opacity:1;" d="M 11.332031 63.71875 L 16.261719 55.386719 L 17.757812 56.351562 C 18.6875 56.949219 19.917969 56.765625 20.632812 55.921875 L 23.355469 52.714844 C 23.960938 52.003906 24.050781 50.984375 23.578125 50.175781 L 21.660156 46.898438 L 16.011719 46.898438 L 1.699219 61.210938 C 0.773438 62.136719 1.429688 63.71875 2.738281 63.71875 Z M 11.332031 63.71875 "/>
<path style=" stroke:none;fill-rule:nonzero;fill:rgb(21.176471%,82.352941%,56.078431%);fill-opacity:1;" d="M 14.75 57.941406 L 11.332031 63.71875 L 2.738281 63.71875 C 1.429688 63.71875 0.773438 62.136719 1.699219 61.210938 L 9.859375 53.050781 Z M 14.75 57.941406 "/>
<path style=" stroke:none;fill-rule:nonzero;fill:rgb(92.941176%,94.901961%,98.039216%);fill-opacity:1;" d="M 46.589844 63.71875 C 46.589844 55.9375 40.28125 49.628906 32.5 49.628906 C 24.71875 49.628906 18.410156 55.9375 18.410156 63.71875 Z M 46.589844 63.71875 "/>
<path style=" stroke:none;fill-rule:nonzero;fill:rgb(53.72549%,53.72549%,59.607843%);fill-opacity:1;" d="M 36.519531 63.71875 C 36.519531 61.5 34.71875 59.699219 32.5 59.699219 C 30.28125 59.699219 28.480469 61.5 28.480469 63.71875 Z M 36.519531 63.71875 "/>
<path style=" stroke:none;fill-rule:nonzero;fill:rgb(0%,0%,0%);fill-opacity:1;" d="M 41.742188 36.289062 C 41.507812 36.523438 41.375 36.851562 41.375 37.183594 C 41.375 37.519531 41.507812 37.847656 41.742188 38.082031 C 41.980469 38.320312 42.308594 38.453125 42.640625 38.453125 C 42.976562 38.453125 43.300781 38.320312 43.539062 38.082031 C 43.777344 37.847656 43.910156 37.519531 43.910156 37.183594 C 43.910156 36.851562 43.777344 36.523438 43.539062 36.289062 C 43.304688 36.050781 42.976562 35.917969 42.640625 35.917969 C 42.308594 35.917969 41.980469 36.050781 41.742188 36.289062 Z M 41.742188 36.289062 "/>
<path style=" stroke:none;fill-rule:nonzero;fill:rgb(0%,0%,0%);fill-opacity:1;" d="M 64.195312 60.3125 L 64.117188 60.234375 L 60.765625 46.148438 C 59.332031 40.125 54.003906 35.917969 47.8125 35.917969 L 47.71875 35.917969 C 47.015625 35.917969 46.449219 36.484375 46.449219 37.1875 C 46.449219 37.886719 47.015625 38.453125 47.71875 38.453125 L 47.8125 38.453125 C 52.824219 38.453125 57.136719 41.859375 58.296875 46.738281 L 60.691406 56.808594 L 49.886719 46 C 49.648438 45.761719 49.324219 45.628906 48.988281 45.628906 L 43.339844 45.628906 C 43.175781 45.628906 43.023438 45.660156 42.875 45.71875 C 39.734375 43.902344 36.152344 42.941406 32.5 42.941406 C 28.839844 42.941406 25.269531 43.898438 22.121094 45.71875 C 21.976562 45.660156 21.820312 45.628906 21.660156 45.628906 L 16.011719 45.628906 C 15.675781 45.628906 15.351562 45.761719 15.113281 46 L 4.300781 56.816406 L 6.679688 46.75 C 7.835938 41.867188 12.148438 38.453125 17.167969 38.453125 L 26.902344 38.453125 C 28.449219 39.816406 30.40625 40.558594 32.484375 40.558594 C 34.742188 40.558594 36.867188 39.679688 38.464844 38.082031 C 38.699219 37.84375 38.835938 37.523438 38.835938 37.1875 L 38.835938 30.675781 C 41.605469 28.9375 43.617188 26.105469 44.261719 22.789062 L 45.25 22.789062 C 47.628906 22.789062 49.5625 20.851562 49.5625 18.472656 L 49.5625 17.789062 C 49.5625 15.410156 47.628906 13.476562 45.25 13.476562 L 44.480469 13.476562 L 44.480469 12.011719 C 44.480469 5.394531 39.097656 0.0117188 32.484375 0.0117188 C 25.867188 0.0117188 20.488281 5.394531 20.488281 12.011719 L 20.488281 13.476562 L 19.71875 13.476562 C 17.339844 13.476562 15.40625 15.410156 15.40625 17.789062 L 15.40625 18.472656 C 15.40625 20.851562 17.339844 22.789062 19.71875 22.789062 L 20.707031 22.789062 C 21.351562 26.105469 23.363281 28.9375 26.132812 30.675781 L 26.132812 35.917969 L 17.167969 35.917969 C 14.183594 35.917969 11.25 36.9375 8.90625 38.789062 C 6.566406 40.640625 4.898438 43.261719 4.210938 46.164062 L 0.882812 60.234375 L 0.804688 60.3125 C 0.015625 61.097656 -0.214844 62.269531 0.210938 63.296875 C 0.636719 64.324219 1.628906 64.988281 2.738281 64.988281 L 11.332031 64.988281 C 11.78125 64.988281 12.195312 64.75 12.421875 64.363281 L 16.683594 57.167969 L 17.074219 57.417969 C 17.453125 57.660156 17.863281 57.820312 18.289062 57.902344 C 17.550781 59.695312 17.144531 61.660156 17.144531 63.71875 C 17.144531 64.417969 17.710938 64.988281 18.410156 64.988281 C 19.113281 64.988281 19.679688 64.417969 19.679688 63.71875 C 19.679688 60.640625 20.773438 57.8125 22.585938 55.597656 L 27.972656 60.988281 C 27.492188 61.785156 27.210938 62.71875 27.210938 63.71875 C 27.210938 64.417969 27.78125 64.988281 28.480469 64.988281 C 29.183594 64.988281 29.75 64.417969 29.75 63.71875 C 29.75 62.203125 30.984375 60.96875 32.5 60.96875 C 34.015625 60.96875 35.25 62.203125 35.25 63.71875 C 35.25 64.417969 35.816406 64.988281 36.519531 64.988281 C 37.21875 64.988281 37.789062 64.417969 37.789062 63.71875 C 37.789062 62.71875 37.507812 61.785156 37.027344 60.988281 L 42.414062 55.597656 C 44.226562 57.8125 45.320312 60.640625 45.320312 63.71875 C 45.320312 64.417969 45.886719 64.988281 46.589844 64.988281 C 47.289062 64.988281 47.855469 64.417969 47.855469 63.71875 C 47.855469 61.660156 47.449219 59.695312 46.710938 57.902344 C 47.136719 57.820312 47.546875 57.664062 47.925781 57.417969 L 48.316406 57.167969 L 52.574219 64.363281 C 52.804688 64.75 53.21875 64.988281 53.667969 64.988281 L 62.261719 64.988281 C 63.371094 64.988281 64.363281 64.324219 64.789062 63.296875 C 65.214844 62.269531 64.984375 61.097656 64.195312 60.3125 Z M 47.023438 17.789062 L 47.023438 18.472656 C 47.023438 19.453125 46.226562 20.25 45.246094 20.25 L 44.480469 20.25 L 44.480469 16.011719 L 45.246094 16.011719 C 46.226562 16.011719 47.023438 16.808594 47.023438 17.789062 Z M 23.023438 12.011719 C 23.023438 6.792969 27.269531 2.550781 32.484375 2.550781 C 37.699219 2.550781 41.941406 6.792969 41.941406 12.011719 L 41.941406 13.476562 L 38.609375 13.476562 C 37.945312 13.476562 37.308594 13.296875 36.75 12.964844 C 37.453125 12.457031 38.121094 11.890625 38.742188 11.265625 C 39.238281 10.769531 39.238281 9.96875 38.742188 9.472656 C 38.25 8.976562 37.445312 8.976562 36.949219 9.472656 C 34.367188 12.054688 30.9375 13.476562 27.285156 13.476562 L 23.023438 13.476562 Z M 17.941406 18.472656 L 17.941406 17.789062 C 17.941406 16.808594 18.738281 16.011719 19.71875 16.011719 L 20.488281 16.011719 L 20.488281 20.25 L 19.71875 20.25 C 18.738281 20.25 17.941406 19.453125 17.941406 18.472656 Z M 23.023438 20.503906 L 23.023438 16.011719 L 27.285156 16.011719 C 29.796875 16.011719 32.222656 15.445312 34.414062 14.371094 C 35.558594 15.429688 37.039062 16.011719 38.609375 16.011719 L 41.941406 16.011719 L 41.941406 20.5 C 41.941406 25.714844 37.699219 29.960938 32.484375 29.960938 C 27.269531 29.960938 23.027344 25.71875 23.023438 20.503906 Z M 32.484375 32.496094 C 33.816406 32.496094 35.097656 32.28125 36.296875 31.875 L 36.296875 36.628906 C 34.101562 38.480469 30.867188 38.480469 28.671875 36.628906 L 28.671875 31.875 C 29.871094 32.28125 31.152344 32.496094 32.484375 32.496094 Z M 41.355469 47.773438 L 40.328125 49.535156 C 40.183594 49.785156 40.070312 50.046875 39.992188 50.316406 C 37.773438 49.070312 35.21875 48.359375 32.5 48.359375 C 29.78125 48.359375 27.226562 49.070312 25.007812 50.316406 C 24.929688 50.046875 24.816406 49.785156 24.671875 49.535156 L 23.644531 47.773438 C 26.34375 46.273438 29.386719 45.480469 32.5 45.480469 C 35.609375 45.480469 38.660156 46.273438 41.355469 47.773438 Z M 10.609375 62.449219 L 2.738281 62.449219 C 2.703125 62.449219 2.605469 62.449219 2.554688 62.324219 C 2.503906 62.203125 2.570312 62.132812 2.597656 62.109375 L 9.8125 54.894531 L 13.121094 58.203125 Z M 16.949219 54.320312 C 16.65625 54.132812 16.304688 54.074219 15.96875 54.152344 C 15.632812 54.234375 15.34375 54.445312 15.167969 54.742188 L 14.453125 55.949219 L 11.605469 53.101562 L 16.539062 48.167969 L 20.933594 48.167969 L 22.480469 50.816406 C 22.683594 51.160156 22.644531 51.59375 22.386719 51.894531 L 19.667969 55.101562 C 19.363281 55.457031 18.839844 55.535156 18.445312 55.28125 Z M 29.769531 59.191406 L 24.382812 53.804688 C 26.59375 51.988281 29.421875 50.898438 32.5 50.898438 C 35.578125 50.898438 38.40625 51.988281 40.617188 53.804688 L 35.230469 59.191406 C 34.433594 58.707031 33.5 58.429688 32.5 58.429688 C 31.5 58.429688 30.566406 58.707031 29.769531 59.191406 Z M 48.050781 54.320312 L 46.554688 55.28125 C 46.160156 55.535156 45.636719 55.457031 45.332031 55.101562 L 42.613281 51.894531 C 42.355469 51.59375 42.316406 51.160156 42.519531 50.816406 L 44.066406 48.167969 L 48.460938 48.167969 L 53.394531 53.101562 L 50.546875 55.949219 L 49.832031 54.742188 C 49.65625 54.445312 49.367188 54.230469 49.03125 54.152344 C 48.695312 54.074219 48.34375 54.132812 48.050781 54.320312 Z M 62.445312 62.324219 C 62.394531 62.449219 62.296875 62.449219 62.261719 62.449219 L 54.390625 62.449219 L 51.878906 58.203125 L 55.1875 54.894531 L 62.402344 62.109375 C 62.429688 62.132812 62.496094 62.203125 62.445312 62.324219 Z M 62.445312 62.324219 "/>
</g>
</svg>
