<?xml version="1.0" encoding="UTF-8"?>
<svg xmlns="http://www.w3.org/2000/svg" xmlns:xlink="http://www.w3.org/1999/xlink" width="60pt" height="60pt" viewBox="0 0 60 60" version="1.1">
<g id="surface1">
<path style=" stroke:none;fill-rule:nonzero;fill:rgb(78.823529%,95.294118%,100%);fill-opacity:1;" d="M 40.554688 58.828125 L 22.480469 58.828125 L 27.164062 47.585938 L 35.871094 47.585938 Z M 40.554688 58.828125 "/>
<path style=" stroke:none;fill-rule:nonzero;fill:rgb(53.72549%,53.72549%,59.607843%);fill-opacity:1;" d="M 43.503906 47.585938 L 19.699219 47.585938 C 17.351562 47.585938 15.382812 45.660156 15.425781 43.308594 C 15.46875 41.03125 17.328125 39.199219 19.617188 39.199219 L 36.277344 39.199219 C 38.5 39.199219 40.417969 37.640625 40.867188 35.464844 L 47.28125 4.515625 C 47.75 2.246094 49.96875 0.789062 52.234375 1.261719 C 54.503906 1.730469 55.960938 3.949219 55.488281 6.214844 L 47.609375 44.242188 C 47.207031 46.1875 45.492188 47.585938 43.503906 47.585938 Z M 43.503906 47.585938 "/>
<path style=" stroke:none;fill-rule:nonzero;fill:rgb(21.176471%,82.352941%,56.078431%);fill-opacity:1;" d="M 38.925781 13.828125 C 35.527344 13.125 32.199219 15.308594 31.496094 18.710938 L 30.46875 23.820312 L 27.679688 26.625 L 18.046875 26.625 C 16.597656 26.625 15.425781 27.796875 15.425781 29.242188 C 15.425781 30.691406 16.597656 31.863281 18.046875 31.863281 L 13.589844 31.863281 C 11.921875 31.863281 10.464844 32.992188 10.042969 34.605469 L 4.5 55.882812 C 4.109375 57.375 5.234375 58.828125 6.773438 58.828125 L 9.496094 58.828125 C 10.566406 58.828125 11.5 58.105469 11.769531 57.070312 L 16.425781 39.199219 L 36.277344 39.199219 C 38.5 39.199219 40.414062 37.640625 40.867188 35.464844 L 43.808594 21.261719 C 44.515625 17.859375 42.328125 14.53125 38.925781 13.828125 Z M 38.925781 13.828125 "/>
<path style=" stroke:none;fill-rule:nonzero;fill:rgb(99.607843%,85.490196%,60.784314%);fill-opacity:1;" d="M 39.589844 1.449219 C 36.492188 1.449219 33.980469 3.960938 33.980469 7.058594 L 33.980469 8.078125 C 33.980469 11.175781 36.492188 13.6875 39.589844 13.6875 C 42.6875 13.6875 45.199219 11.175781 45.199219 8.078125 L 45.199219 7.058594 C 45.199219 3.960938 42.6875 1.449219 39.589844 1.449219 Z M 39.589844 1.449219 "/>
<path style=" stroke:none;fill-rule:nonzero;fill:rgb(0%,0%,0%);fill-opacity:1;" d="M 51.128906 26.082031 C 50.820312 26.082031 50.519531 26.210938 50.300781 26.425781 C 50.082031 26.644531 49.957031 26.949219 49.957031 27.253906 C 49.957031 27.5625 50.082031 27.867188 50.300781 28.085938 C 50.519531 28.300781 50.820312 28.425781 51.128906 28.425781 C 51.4375 28.425781 51.742188 28.300781 51.957031 28.085938 C 52.175781 27.867188 52.300781 27.5625 52.300781 27.253906 C 52.300781 26.949219 52.175781 26.644531 51.957031 26.425781 C 51.738281 26.210938 51.4375 26.082031 51.128906 26.082031 Z M 51.128906 26.082031 "/>
<path style=" stroke:none;fill-rule:nonzero;fill:rgb(0%,0%,0%);fill-opacity:1;" d="M 55.867188 2.421875 C 55.082031 1.222656 53.875 0.402344 52.472656 0.113281 C 51.070312 -0.175781 49.636719 0.09375 48.441406 0.882812 C 47.242188 1.667969 46.421875 2.875 46.132812 4.277344 L 46.007812 4.878906 C 45.097656 2.207031 42.566406 0.277344 39.589844 0.277344 C 35.851562 0.277344 32.808594 3.320312 32.808594 7.058594 L 32.808594 8.078125 C 32.808594 10.027344 33.640625 11.789062 34.960938 13.027344 C 34.476562 13.214844 34.003906 13.457031 33.558594 13.75 C 31.890625 14.84375 30.75 16.519531 30.34375 18.480469 L 29.390625 23.242188 L 27.191406 25.453125 L 18.046875 25.453125 C 15.953125 25.453125 14.253906 27.152344 14.253906 29.242188 C 14.253906 29.757812 14.355469 30.246094 14.542969 30.691406 L 13.589844 30.691406 C 11.390625 30.691406 9.464844 32.179688 8.90625 34.3125 L 7.523438 39.621094 C 7.363281 40.246094 7.738281 40.886719 8.363281 41.050781 C 8.460938 41.074219 8.5625 41.085938 8.660156 41.085938 C 9.179688 41.085938 9.65625 40.738281 9.792969 40.210938 L 11.175781 34.902344 C 11.460938 33.804688 12.457031 33.035156 13.589844 33.035156 L 30.757812 33.035156 C 31.070312 33.035156 31.371094 32.910156 31.589844 32.6875 L 37.523438 26.695312 C 37.980469 26.234375 37.976562 25.492188 37.515625 25.039062 C 37.054688 24.582031 36.3125 24.585938 35.859375 25.046875 L 30.269531 30.691406 L 18.046875 30.691406 C 17.246094 30.691406 16.597656 30.042969 16.597656 29.242188 C 16.597656 28.445312 17.246094 27.796875 18.046875 27.796875 L 27.679688 27.796875 C 27.992188 27.796875 28.289062 27.671875 28.511719 27.449219 L 35.21875 20.703125 C 35.675781 20.246094 35.671875 19.503906 35.214844 19.046875 C 34.753906 18.589844 34.011719 18.59375 33.558594 19.050781 L 32.382812 20.230469 L 32.640625 18.945312 C 32.917969 17.609375 33.703125 16.457031 34.84375 15.707031 C 35.984375 14.957031 37.351562 14.699219 38.691406 14.976562 C 40.027344 15.253906 41.179688 16.035156 41.929688 17.175781 C 42.679688 18.320312 42.9375 19.683594 42.660156 21.023438 C 42.660156 21.03125 42.660156 21.039062 42.65625 21.050781 L 39.71875 35.226562 C 39.382812 36.851562 37.933594 38.027344 36.277344 38.027344 L 19.617188 38.027344 C 16.871094 38.027344 14.566406 40.144531 14.285156 42.832031 C 14.261719 42.886719 14.242188 42.941406 14.226562 42.996094 L 10.636719 56.773438 C 10.5 57.292969 10.03125 57.65625 9.496094 57.65625 L 6.773438 57.65625 C 6.40625 57.65625 6.066406 57.488281 5.839844 57.199219 C 5.617188 56.90625 5.539062 56.535156 5.632812 56.179688 L 7.589844 48.667969 C 7.753906 48.042969 7.378906 47.402344 6.75 47.238281 C 6.125 47.074219 5.484375 47.449219 5.320312 48.078125 L 3.363281 55.589844 C 3.085938 56.652344 3.3125 57.761719 3.988281 58.632812 C 4.660156 59.5 5.675781 60 6.773438 60 L 9.496094 60 C 11.097656 60 12.5 58.917969 12.90625 57.363281 L 15.625 46.933594 C 15.675781 46.992188 15.730469 47.050781 15.789062 47.109375 C 16.816406 48.15625 18.242188 48.757812 19.699219 48.757812 L 25.40625 48.757812 L 21.398438 58.378906 C 21.246094 58.738281 21.285156 59.152344 21.503906 59.476562 C 21.722656 59.804688 22.085938 60 22.480469 60 L 40.554688 60 C 40.949219 60 41.3125 59.804688 41.53125 59.476562 C 41.75 59.152344 41.789062 58.738281 41.636719 58.378906 L 37.628906 48.757812 L 43.503906 48.757812 C 46.035156 48.757812 48.242188 46.957031 48.757812 44.480469 L 51.324219 32.101562 C 51.453125 31.46875 51.046875 30.847656 50.414062 30.714844 C 49.78125 30.585938 49.160156 30.992188 49.027344 31.625 L 46.460938 44.003906 C 46.171875 45.398438 44.929688 46.414062 43.503906 46.414062 L 19.699219 46.414062 C 18.867188 46.414062 18.050781 46.066406 17.460938 45.46875 C 16.890625 44.882812 16.582031 44.125 16.597656 43.332031 C 16.628906 41.699219 17.984375 40.371094 19.617188 40.371094 L 36.277344 40.371094 C 39.039062 40.371094 41.453125 38.40625 42.015625 35.703125 L 48.429688 4.753906 C 48.59375 3.960938 49.054688 3.285156 49.726562 2.839844 C 50.402344 2.398438 51.207031 2.246094 52 2.40625 C 52.789062 2.570312 53.46875 3.035156 53.910156 3.707031 C 54.351562 4.382812 54.507812 5.1875 54.34375 5.976562 L 50.859375 22.78125 C 50.730469 23.414062 51.136719 24.035156 51.769531 24.164062 C 52.402344 24.296875 53.023438 23.890625 53.15625 23.257812 L 56.636719 6.453125 C 56.929688 5.050781 56.65625 3.617188 55.867188 2.421875 Z M 35.089844 48.757812 L 38.800781 57.65625 L 24.238281 57.65625 L 27.945312 48.757812 Z M 35.152344 7.058594 C 35.152344 4.613281 37.144531 2.621094 39.589844 2.621094 C 42.035156 2.621094 44.027344 4.613281 44.027344 7.058594 L 44.027344 8.078125 C 44.027344 10.523438 42.035156 12.515625 39.589844 12.515625 C 37.144531 12.515625 35.152344 10.523438 35.152344 8.078125 Z M 42.414062 14.238281 C 43.132812 13.90625 43.789062 13.453125 44.34375 12.90625 L 43.761719 15.710938 C 43.375 15.15625 42.921875 14.660156 42.414062 14.238281 Z M 42.414062 14.238281 "/>
<path style=" stroke:none;fill-rule:nonzero;fill:rgb(0%,0%,0%);fill-opacity:1;" d="M 7.601562 45.140625 C 7.910156 45.140625 8.210938 45.015625 8.429688 44.796875 C 8.648438 44.582031 8.773438 44.277344 8.773438 43.96875 C 8.773438 43.660156 8.648438 43.359375 8.429688 43.140625 C 8.214844 42.921875 7.910156 42.796875 7.601562 42.796875 C 7.292969 42.796875 6.992188 42.921875 6.773438 43.140625 C 6.554688 43.359375 6.429688 43.660156 6.429688 43.96875 C 6.429688 44.28125 6.554688 44.582031 6.773438 44.796875 C 6.992188 45.019531 7.292969 45.140625 7.601562 45.140625 Z M 7.601562 45.140625 "/>
</g>
</svg>
