<?xml version="1.0" encoding="UTF-8"?>
<svg xmlns="http://www.w3.org/2000/svg" xmlns:xlink="http://www.w3.org/1999/xlink" width="65pt" height="65pt" viewBox="0 0 65 65" version="1.1">
<g id="surface1">
<path style=" stroke:none;fill-rule:nonzero;fill:rgb(0%,0%,0%);fill-opacity:1;" d="M 36.605469 27.167969 C 36.605469 24.90625 34.761719 23.0625 32.5 23.0625 C 30.238281 23.0625 28.394531 24.90625 28.394531 27.167969 C 28.394531 29.429688 30.238281 31.273438 32.5 31.273438 C 34.761719 31.273438 36.605469 29.429688 36.605469 27.167969 Z M 30.933594 27.167969 C 30.933594 26.304688 31.636719 25.601562 32.5 25.601562 C 33.363281 25.601562 34.066406 26.304688 34.066406 27.167969 C 34.066406 28.03125 33.363281 28.734375 32.5 28.734375 C 31.636719 28.734375 30.933594 28.03125 30.933594 27.167969 Z M 30.933594 27.167969 "/>
<path style=" stroke:none;fill-rule:nonzero;fill:rgb(0%,0%,0%);fill-opacity:1;" d="M 64.902344 45.757812 L 62.816406 40.773438 L 63.949219 39.046875 C 64.886719 37.617188 65.164062 35.851562 64.710938 34.203125 L 63.65625 30.378906 C 63.191406 28.703125 62.136719 27.257812 60.679688 26.3125 C 60.441406 26.160156 60.164062 26.089844 59.890625 26.113281 C 59.292969 13.609375 50.207031 2.960938 37.839844 0.519531 C 37.152344 0.382812 36.484375 0.832031 36.347656 1.519531 C 36.214844 2.207031 36.660156 2.875 37.347656 3.011719 C 48.957031 5.304688 57.382812 15.570312 57.382812 27.421875 C 57.382812 27.773438 57.371094 28.125 57.359375 28.476562 L 54.707031 29.894531 C 54.796875 29.074219 54.84375 28.246094 54.84375 27.421875 C 54.84375 26.042969 54.71875 24.695312 54.476562 23.382812 C 54.472656 23.347656 54.464844 23.3125 54.457031 23.277344 C 52.507812 12.929688 43.40625 5.078125 32.5 5.078125 C 21.589844 5.078125 12.484375 12.9375 10.539062 23.292969 C 10.535156 23.320312 10.527344 23.351562 10.523438 23.378906 C 10.28125 24.691406 10.15625 26.042969 10.15625 27.421875 C 10.15625 28.246094 10.203125 29.074219 10.292969 29.894531 L 7.640625 28.476562 C 7.625 28.125 7.617188 27.773438 7.617188 27.421875 C 7.617188 15.554688 16.054688 5.285156 27.683594 3.003906 C 28.371094 2.871094 28.820312 2.203125 28.683594 1.515625 C 28.546875 0.828125 27.882812 0.378906 27.195312 0.511719 C 14.808594 2.941406 5.707031 13.59375 5.109375 26.113281 C 4.835938 26.089844 4.558594 26.160156 4.320312 26.3125 C 2.863281 27.257812 1.808594 28.703125 1.34375 30.378906 L 0.289062 34.203125 C -0.164062 35.851562 0.113281 37.617188 1.050781 39.046875 L 2.183594 40.773438 L 0.0976562 45.757812 C -0.171875 46.402344 0.132812 47.148438 0.78125 47.417969 C 0.941406 47.484375 1.105469 47.519531 1.269531 47.519531 C 1.765625 47.519531 2.238281 47.222656 2.441406 46.738281 L 4.382812 42.101562 L 9.902344 43.265625 L 5.113281 63.4375 C 4.949219 64.117188 5.371094 64.804688 6.054688 64.964844 C 6.152344 64.988281 6.25 65 6.347656 65 C 6.921875 65 7.445312 64.605469 7.582031 64.023438 L 11.960938 45.585938 C 17.136719 51.429688 24.613281 54.84375 32.5 54.84375 C 36.867188 54.84375 41.210938 53.792969 45.066406 51.800781 C 48.070312 50.25 50.789062 48.125 53.039062 45.589844 L 57.417969 64.023438 C 57.554688 64.605469 58.074219 65 58.652344 65 C 58.746094 65 58.847656 64.988281 58.945312 64.964844 C 59.628906 64.804688 60.050781 64.117188 59.886719 63.4375 L 55.097656 43.265625 L 60.617188 42.101562 L 62.558594 46.738281 C 62.761719 47.226562 63.234375 47.519531 63.730469 47.519531 C 63.894531 47.519531 64.058594 47.484375 64.21875 47.417969 C 64.867188 47.148438 65.171875 46.402344 64.902344 45.757812 Z M 59.503906 30.210938 C 59.699219 30.105469 59.863281 29.953125 59.980469 29.765625 L 60.277344 29.300781 C 60.707031 29.804688 61.027344 30.402344 61.207031 31.054688 L 62.261719 34.875 C 62.523438 35.820312 62.363281 36.832031 61.828125 37.652344 L 60.609375 39.507812 L 53.980469 40.90625 L 52.808594 39.699219 C 51.921875 38.789062 51.433594 37.585938 51.433594 36.3125 L 51.433594 33.25 C 51.433594 32.875 51.6875 32.546875 52.050781 32.453125 L 52.351562 32.375 C 53.25 32.898438 54.390625 32.941406 55.335938 32.4375 Z M 15.953125 32.261719 L 23.496094 32.261719 C 25.800781 32.261719 27.675781 34.136719 27.675781 36.445312 L 27.675781 46.636719 C 22.859375 45.4375 18.644531 42.464844 15.867188 38.175781 C 16.023438 37.574219 16.105469 36.949219 16.105469 36.3125 L 16.105469 33.25 C 16.105469 32.910156 16.050781 32.578125 15.953125 32.261719 Z M 23.496094 29.722656 L 12.828125 29.722656 C 12.738281 28.960938 12.695312 28.191406 12.695312 27.421875 C 12.695312 26.464844 12.765625 25.523438 12.898438 24.601562 L 25.789062 21.492188 C 30.179688 20.433594 34.820312 20.433594 39.210938 21.492188 L 52.101562 24.601562 C 52.234375 25.523438 52.304688 26.464844 52.304688 27.421875 C 52.304688 28.191406 52.257812 28.960938 52.171875 29.722656 L 41.503906 29.722656 C 37.800781 29.722656 34.785156 32.738281 34.785156 36.445312 L 34.785156 47.09375 C 34.03125 47.179688 33.269531 47.226562 32.5 47.226562 C 31.730469 47.226562 30.96875 47.179688 30.214844 47.09375 L 30.214844 36.445312 C 30.214844 32.738281 27.199219 29.722656 23.496094 29.722656 Z M 37.324219 36.445312 C 37.324219 34.136719 39.199219 32.261719 41.503906 32.261719 L 49.046875 32.261719 C 48.949219 32.578125 48.894531 32.910156 48.894531 33.25 L 48.894531 36.3125 C 48.894531 36.949219 48.976562 37.574219 49.132812 38.175781 C 46.355469 42.464844 42.140625 45.4375 37.324219 46.636719 Z M 32.5 7.617188 C 41.484375 7.617188 49.089844 13.632812 51.503906 21.84375 L 39.808594 19.023438 C 35.027344 17.871094 29.972656 17.871094 25.191406 19.023438 L 13.496094 21.84375 C 15.910156 13.632812 23.515625 7.617188 32.5 7.617188 Z M 2.738281 34.875 L 3.792969 31.054688 C 3.972656 30.402344 4.292969 29.804688 4.722656 29.300781 L 5.019531 29.765625 C 5.136719 29.953125 5.300781 30.105469 5.496094 30.210938 L 9.664062 32.4375 C 10.609375 32.941406 11.75 32.898438 12.648438 32.375 L 12.949219 32.453125 C 13.3125 32.546875 13.566406 32.875 13.566406 33.25 L 13.566406 36.3125 C 13.566406 37.585938 13.078125 38.789062 12.191406 39.699219 L 11.019531 40.90625 L 4.390625 39.507812 L 3.171875 37.652344 C 2.636719 36.832031 2.476562 35.820312 2.738281 34.875 Z M 32.5 52.304688 C 24.808594 52.304688 17.542969 48.722656 12.839844 42.671875 L 14.011719 41.46875 C 14.222656 41.253906 14.417969 41.023438 14.597656 40.789062 C 16.449219 43.261719 18.804688 45.347656 21.5 46.875 C 24.835938 48.765625 28.640625 49.765625 32.5 49.765625 C 36.359375 49.765625 40.164062 48.765625 43.503906 46.871094 C 46.195312 45.347656 48.550781 43.261719 50.402344 40.789062 C 50.582031 41.023438 50.777344 41.253906 50.988281 41.46875 L 52.160156 42.675781 C 47.460938 48.714844 40.160156 52.304688 32.5 52.304688 Z M 32.5 52.304688 "/>
<path style=" stroke:none;fill-rule:nonzero;fill:rgb(0%,0%,0%);fill-opacity:1;" d="M 32.5 2.539062 L 32.53125 2.539062 C 33.230469 2.539062 33.800781 1.972656 33.800781 1.269531 C 33.800781 0.570312 33.230469 0 32.53125 0 L 32.5 0 C 31.800781 0 31.230469 0.570312 31.230469 1.269531 C 31.230469 1.972656 31.800781 2.539062 32.5 2.539062 Z M 32.5 2.539062 "/>
</g>
</svg>
